# xmcd CD database file
#
# Track frame offsets:
#	150
#	16772
#	32274
#	44429
#	69414
#	81079
#	90468
#	102579
#	117228
#	129151
#	142097
#	158016
#	169679
#	184128
#	195435
#	204762
#	230990
#	242908
#	266732
#	289506
#
# Disc length: 4016 seconds
#
# Revision: 4
# Processed by: cddbd v1.5.1PL0 Copyright (c) Steve Scherf et al.
# Submitted via: Feurio! 1.66 - http://www.feurio.com
#
DISCID=0b0fae14
DTITLE=Various Artist - SuperFunk2
DYEAR=1900
DGENRE=misc
TTITLE0=Billy Garner - Brand New Girl
TTITLE1=Granby Street Development - Jelly Roll
TTITLE2=Jackie Harris and The Exciters - Do It, Do It
TTITLE3=Pee Wee Crayton - Put It Where You Want It
TTITLE4=Brenda George - What You See Is What You Get
TTITLE5=Thelma Jones - The House That Jack Built
TTITLE6=Sidney Pinchback and The Schiller St Gang - Soul Strokes
TTITLE7=Johnny Otis - Jaws
TTITLE8=Freddy Wilson - Promised Land
TTITLE9=Billy Garner - You're Wasting My Time (pt 1)
TTITLE10=Lil' Buck and The Top Cats - Monkey in a Sack
TTITLE11=Pieces of Peace - Pass It On
TTITLE12=Robert Lowe - Put Your Legs Up High
TTITLE13=Ruth Davis - I Need Money
TTITLE14=Melvin Lastie and Harold Battiste with Cornell Dupree - Ignant
TTITLE15=Johnny Otis Show - Comin' At Ya Baby
TTITLE16=Willard Burton and The Pacifiers - Warm The Pot (Til It's Good and Hot)
TTITLE17=Joe Houston - Mr Big H
TTITLE18=Preston Epps - Funky Bongo
TTITLE19=Irene Reid - Dirty Ole Man
EXTD=
EXTT0=
EXTT1=
EXTT2=
EXTT3=
EXTT4=
EXTT5=
EXTT6=
EXTT7=
EXTT8=
EXTT9=
EXTT10=
EXTT11=
EXTT12=
EXTT13=
EXTT14=
EXTT15=
EXTT16=
EXTT17=
EXTT18=
EXTT19=
PLAYORDER=
